<!-- Generator: Adobe Illustrator 19.1.0, SVG Export Plug-In  -->
<svg version="1.1"
	 xmlns="http://www.w3.org/2000/svg" xmlns:xlink="http://www.w3.org/1999/xlink" xmlns:a="http://ns.adobe.com/AdobeSVGViewerExtensions/3.0/"
	 x="0px" y="0px" width="332.277px" height="41.094px" viewBox="0 0 332.277 41.094"
	 style="enable-background:new 0 0 332.277 41.094;" xml:space="preserve">
<style type="text/css">
	.st0{fill:#FFFFFF;stroke:#000000;stroke-miterlimit:10;}
</style>
<defs>
</defs>
<g>
	<path class="st0" d="M26.967,37.44c0,1.014-0.245,1.793-0.732,2.337c-0.488,0.545-1.146,0.816-1.971,0.816
		c-0.788,0-1.445-0.271-1.971-0.816c-0.526-0.544-0.789-1.304-0.789-2.28v-3.829c0-1.952-0.479-3.388-1.436-4.309
		c-0.958-0.919-2.093-1.379-3.407-1.379c-1.427,0-2.59,0.422-3.491,1.267s-1.352,2.056-1.352,3.632v2.872
		c0,1.766-0.488,3.013-1.464,3.745c-0.977,0.731-2.347,1.098-4.111,1.098c-1.728,0-3.117-0.422-4.167-1.267
		C1.025,38.482,0.5,37.291,0.5,35.751V5.174c0-1.389,0.413-2.515,1.239-3.379C2.564,0.932,3.69,0.5,5.118,0.5h16.387
		c1.689,0,2.937,0.432,3.745,1.295c0.807,0.864,1.21,1.935,1.21,3.21v13.233c0,1.689-0.385,3.032-1.154,4.026
		c-0.77,0.995-1.868,1.755-3.294,2.28c1.577,0.602,2.796,1.633,3.661,3.098c0.863,1.464,1.295,3.454,1.295,5.969V37.44z
		 M21.73,11.087c0-1.276-0.46-2.402-1.38-3.379c-0.92-0.976-2.168-1.464-3.745-1.464c-0.676,0-1.323,0.132-1.943,0.394
		c-0.619,0.264-1.164,0.61-1.633,1.042c-0.47,0.432-0.836,0.938-1.098,1.521c-0.263,0.582-0.394,1.211-0.394,1.887v4.505
		c0,1.576,0.487,2.815,1.464,3.716c0.976,0.901,2.252,1.352,3.829,1.352c1.352,0,2.506-0.459,3.463-1.379
		c0.957-0.92,1.436-2.149,1.436-3.688V11.087z"/>
	<path class="st0" d="M35.751,40.594c-3.266,0-4.899-1.37-4.899-4.11V5.624c0-3.415,1.539-5.124,4.618-5.124h16.894
		c3.116,0,4.674,1.709,4.674,5.124v30.409c0,3.04-1.783,4.561-5.35,4.561H35.751z M52.363,11.649c0-1.464-0.394-2.73-1.183-3.801
		c-0.788-1.07-2.103-1.604-3.941-1.604c-1.802,0-3.145,0.534-4.026,1.604c-0.883,1.07-1.323,2.337-1.323,3.801v18.358
		c0,1.688,0.44,3.004,1.323,3.941c0.881,0.938,2.224,1.408,4.026,1.408c1.839,0,3.153-0.47,3.941-1.408
		c0.789-0.938,1.183-2.253,1.183-3.941V11.649z"/>
	<path class="st0" d="M66.722,40.594c-1.765,0-3.145-0.459-4.139-1.38c-0.995-0.919-1.493-2.13-1.493-3.632V5.624
		c0-1.426,0.403-2.637,1.211-3.632C63.108,0.998,64.413,0.5,66.215,0.5h15.542c0.938,0,1.764,0.169,2.478,0.507
		c0.712,0.338,1.295,0.77,1.746,1.295c0.451,0.526,0.789,1.126,1.014,1.802s0.338,1.371,0.338,2.084v4.505
		c0,1.952-0.366,3.444-1.098,4.477c-0.732,1.033-1.943,1.812-3.632,2.337c3.154,1.202,4.73,3.604,4.73,7.208v10.812
		c0,0.676-0.169,1.323-0.507,1.942s-0.789,1.164-1.352,1.633c-0.563,0.47-1.192,0.836-1.886,1.099
		c-0.695,0.263-1.399,0.394-2.112,0.394H66.722z M82.264,26.234c0-1.651-0.498-2.909-1.492-3.772
		c-0.995-0.863-2.318-1.296-3.97-1.296c-1.427,0-2.572,0.433-3.435,1.296c-0.864,0.863-1.295,2.121-1.295,3.772v3.717
		c0,0.788,0.15,1.502,0.451,2.14c0.3,0.639,0.694,1.174,1.183,1.604c0.487,0.433,1.042,0.771,1.661,1.014
		c0.619,0.245,1.267,0.366,1.943,0.366c1.351,0,2.515-0.45,3.491-1.352c0.976-0.9,1.464-2.14,1.464-3.716V26.234z M81.476,10.298
		c0-2.853-1.427-4.279-4.28-4.279c-2.891,0-4.336,1.427-4.336,4.279c0,1.39,0.31,2.441,0.929,3.153
		c0.619,0.714,1.698,1.07,3.238,1.07C79.992,14.521,81.476,13.113,81.476,10.298z"/>
	<path class="st0" d="M134.52,37.44c0,1.014-0.245,1.793-0.732,2.337c-0.488,0.545-1.146,0.816-1.971,0.816
		c-0.788,0-1.445-0.271-1.971-0.816c-0.526-0.544-0.789-1.304-0.789-2.28v-3.829c0-1.952-0.479-3.388-1.436-4.309
		c-0.958-0.919-2.093-1.379-3.407-1.379c-1.427,0-2.59,0.422-3.491,1.267s-1.352,2.056-1.352,3.632v2.872
		c0,1.766-0.488,3.013-1.464,3.745c-0.977,0.731-2.347,1.098-4.111,1.098c-1.728,0-3.117-0.422-4.167-1.267
		c-1.052-0.845-1.577-2.036-1.577-3.576V5.174c0-1.389,0.413-2.515,1.239-3.379c0.825-0.863,1.951-1.295,3.378-1.295h16.387
		c1.689,0,2.937,0.432,3.745,1.295c0.807,0.864,1.21,1.935,1.21,3.21v13.233c0,1.689-0.385,3.032-1.154,4.026
		c-0.77,0.995-1.868,1.755-3.294,2.28c1.577,0.602,2.796,1.633,3.661,3.098c0.863,1.464,1.295,3.454,1.295,5.969V37.44z
		 M129.283,11.087c0-1.276-0.46-2.402-1.38-3.379c-0.92-0.976-2.168-1.464-3.745-1.464c-0.676,0-1.323,0.132-1.943,0.394
		c-0.619,0.264-1.164,0.61-1.633,1.042c-0.47,0.432-0.836,0.938-1.098,1.521c-0.263,0.582-0.394,1.211-0.394,1.887v4.505
		c0,1.576,0.487,2.815,1.464,3.716c0.976,0.901,2.252,1.352,3.829,1.352c1.352,0,2.506-0.459,3.463-1.379
		c0.957-0.92,1.436-2.149,1.436-3.688V11.087z"/>
	<path class="st0" d="M143.304,40.594c-3.266,0-4.899-1.37-4.899-4.11V5.624c0-3.415,1.539-5.124,4.618-5.124h16.894
		c3.116,0,4.674,1.709,4.674,5.124v30.409c0,3.04-1.783,4.561-5.35,4.561H143.304z M159.916,11.649c0-1.464-0.394-2.73-1.183-3.801
		c-0.788-1.07-2.103-1.604-3.941-1.604c-1.802,0-3.145,0.534-4.026,1.604c-0.883,1.07-1.323,2.337-1.323,3.801v18.358
		c0,1.688,0.44,3.004,1.323,3.941c0.881,0.938,2.224,1.408,4.026,1.408c1.839,0,3.153-0.47,3.941-1.408
		c0.789-0.938,1.183-2.253,1.183-3.941V11.649z"/>
	<path class="st0" d="M174.275,40.594c-1.765,0-3.145-0.459-4.139-1.38c-0.995-0.919-1.493-2.13-1.493-3.632V5.624
		c0-1.426,0.403-2.637,1.211-3.632c0.807-0.994,2.112-1.492,3.914-1.492h15.542c0.938,0,1.764,0.169,2.478,0.507
		c0.712,0.338,1.295,0.77,1.746,1.295c0.451,0.526,0.789,1.126,1.014,1.802s0.338,1.371,0.338,2.084v4.505
		c0,1.952-0.366,3.444-1.098,4.477c-0.732,1.033-1.943,1.812-3.632,2.337c3.154,1.202,4.73,3.604,4.73,7.208v10.812
		c0,0.676-0.169,1.323-0.507,1.942s-0.789,1.164-1.352,1.633c-0.563,0.47-1.192,0.836-1.886,1.099
		c-0.695,0.263-1.399,0.394-2.112,0.394H174.275z M189.817,26.234c0-1.651-0.498-2.909-1.492-3.772
		c-0.995-0.863-2.318-1.296-3.97-1.296c-1.427,0-2.572,0.433-3.435,1.296c-0.864,0.863-1.295,2.121-1.295,3.772v3.717
		c0,0.788,0.15,1.502,0.451,2.14c0.3,0.639,0.694,1.174,1.183,1.604c0.487,0.433,1.042,0.771,1.661,1.014
		c0.619,0.245,1.267,0.366,1.943,0.366c1.351,0,2.515-0.45,3.491-1.352c0.976-0.9,1.464-2.14,1.464-3.716V26.234z M189.029,10.298
		c0-2.853-1.427-4.279-4.28-4.279c-2.891,0-4.336,1.427-4.336,4.279c0,1.39,0.31,2.441,0.929,3.153
		c0.619,0.714,1.698,1.07,3.238,1.07C187.545,14.521,189.029,13.113,189.029,10.298z"/>
	<path class="st0" d="M198.882,5.286c0-1.539,0.582-2.722,1.746-3.548c1.163-0.825,2.552-1.238,4.167-1.238
		c1.614,0,2.993,0.413,4.139,1.238c1.145,0.826,1.718,2.009,1.718,3.548v30.578c0,1.464-0.573,2.618-1.718,3.463
		c-1.146,0.845-2.525,1.267-4.139,1.267c-1.615,0-3.004-0.412-4.167-1.238c-1.164-0.825-1.746-1.989-1.746-3.491V5.286z"/>
	<path class="st0" d="M236.499,11.48c0-1.651-0.479-2.908-1.436-3.772c-0.957-0.863-2.168-1.295-3.632-1.295
		c-0.676,0-1.333,0.104-1.971,0.31c-0.639,0.206-1.21,0.525-1.717,0.957s-0.911,0.985-1.211,1.661
		c-0.301,0.676-0.45,1.502-0.45,2.478v23.933c0,1.428-0.507,2.591-1.521,3.491c-1.014,0.901-2.384,1.352-4.111,1.352
		c-1.689,0-3.079-0.459-4.167-1.38c-1.089-0.919-1.633-2.092-1.633-3.519V5.343c0-1.352,0.422-2.496,1.267-3.436
		c0.845-0.938,1.887-1.407,3.125-1.407h16.5c1.989,0,3.454,0.488,4.392,1.464c0.938,0.977,1.408,2.121,1.408,3.436v32.66
		c0,0.752-0.216,1.361-0.647,1.83c-0.432,0.471-1.005,0.704-1.717,0.704c-0.714,0-1.305-0.233-1.774-0.704
		c-0.47-0.469-0.704-1.078-0.704-1.83V11.48z"/>
	<path class="st0" d="M247.761,40.594c-0.789,0-1.399-0.215-1.83-0.647c-0.432-0.431-0.648-0.947-0.648-1.549
		c0-0.6,0.216-1.088,0.648-1.464c0.431-0.375,1.042-0.563,1.83-0.563h12.107c1.651,0,2.909-0.431,3.773-1.295
		c0.863-0.863,1.295-2.083,1.295-3.66c0-1.651-0.386-2.891-1.155-3.717c-0.77-0.825-2.018-1.464-3.745-1.914l-10.643-2.76
		c-0.864-0.225-1.577-0.487-2.14-0.788c-0.563-0.3-1.033-0.685-1.408-1.154c-0.376-0.469-0.639-1.051-0.789-1.746
		c-0.15-0.694-0.225-1.529-0.225-2.506V5.174c0-0.601,0.112-1.191,0.338-1.773c0.225-0.582,0.535-1.079,0.929-1.493
		c0.394-0.412,0.854-0.75,1.379-1.013c0.525-0.263,1.07-0.395,1.633-0.395h17.119c1.539,0,2.722,0.507,3.548,1.521
		c0.825,1.014,1.239,2.646,1.239,4.899c0,1.126-0.319,2.083-0.958,2.871c-0.639,0.789-1.464,1.183-2.478,1.183
		c-1.051,0-1.793-0.243-2.225-0.731c-0.432-0.488-0.816-1.032-1.154-1.634c-0.338-0.6-0.76-1.145-1.267-1.633
		c-0.507-0.487-1.379-0.731-2.618-0.731c-1.126,0-2.159,0.365-3.097,1.098c-0.939,0.732-1.408,1.906-1.408,3.52v4.393
		c0,1.689,0.3,2.976,0.901,3.857c0.6,0.882,1.595,1.512,2.984,1.886l7.377,1.915c2.627,0.714,3.942,2.516,3.942,5.406v7.208
		c0,1.576-0.563,2.815-1.689,3.716c-1.126,0.901-2.59,1.352-4.392,1.352H247.761z"/>
	<path class="st0" d="M279.746,40.594c-3.266,0-4.899-1.37-4.899-4.11V5.624c0-3.415,1.539-5.124,4.618-5.124h16.894
		c3.116,0,4.674,1.709,4.674,5.124v30.409c0,3.04-1.783,4.561-5.35,4.561H279.746z M296.357,11.649c0-1.464-0.394-2.73-1.183-3.801
		c-0.788-1.07-2.103-1.604-3.941-1.604c-1.802,0-3.145,0.534-4.026,1.604c-0.883,1.07-1.323,2.337-1.323,3.801v18.358
		c0,1.688,0.44,3.004,1.323,3.941c0.881,0.938,2.224,1.408,4.026,1.408c1.839,0,3.153-0.47,3.941-1.408
		c0.789-0.938,1.183-2.253,1.183-3.941V11.649z"/>
	<path class="st0" d="M326.934,11.48c0-1.651-0.479-2.908-1.436-3.772c-0.957-0.863-2.168-1.295-3.632-1.295
		c-0.676,0-1.333,0.104-1.971,0.31c-0.639,0.206-1.21,0.525-1.717,0.957s-0.911,0.985-1.211,1.661
		c-0.301,0.676-0.45,1.502-0.45,2.478v23.933c0,1.428-0.507,2.591-1.521,3.491c-1.014,0.901-2.384,1.352-4.111,1.352
		c-1.689,0-3.079-0.459-4.167-1.38c-1.089-0.919-1.633-2.092-1.633-3.519V5.343c0-1.352,0.422-2.496,1.267-3.436
		c0.845-0.938,1.887-1.407,3.125-1.407h16.5c1.989,0,3.454,0.488,4.392,1.464c0.938,0.977,1.408,2.121,1.408,3.436v32.66
		c0,0.752-0.216,1.361-0.647,1.83c-0.432,0.471-1.005,0.704-1.717,0.704c-0.714,0-1.305-0.233-1.774-0.704
		c-0.47-0.469-0.704-1.078-0.704-1.83V11.48z"/>
</g>
</svg>